<!-- SPDX-License-Identifier: LGPL-3.0-or-later -->
<svg xmlns="http://www.w3.org/2000/svg" viewBox="0 0 1024 1024">
  <defs>
    <linearGradient id="background" x1="98" y1="64" x2="906" y2="960" gradientUnits="userSpaceOnUse">
      <stop stop-color="#111346"/>
      <stop offset="1" stop-color="#050522"/>
    </linearGradient>
    <linearGradient id="brand" x1="280" y1="176" x2="760" y2="874" gradientUnits="userSpaceOnUse">
      <stop stop-color="#00F7FF"/>
      <stop offset="1" stop-color="#007BFF"/>
    </linearGradient>
    <radialGradient id="glow" cx="0" cy="0" r="1" gradientTransform="translate(512 500) rotate(90) scale(430)" gradientUnits="userSpaceOnUse">
      <stop stop-color="#087BFF" stop-opacity=".24"/>
      <stop offset="1" stop-color="#087BFF" stop-opacity="0"/>
    </radialGradient>
    <filter id="shadow" x="-30%" y="-30%" width="160%" height="170%">
      <feDropShadow dx="0" dy="24" stdDeviation="28" flood-color="#000019" flood-opacity=".42"/>
    </filter>
  </defs>
  <rect x="48" y="48" width="928" height="928" rx="238" fill="url(#background)"/>
  <rect x="64" y="64" width="896" height="896" rx="224" fill="url(#glow)" stroke="#24285F" stroke-width="3"/>
  <!-- Official DeePMD-kit mascot geometry, fitted to the application tile. -->
  <g transform="translate(52 30) scale(2.33)" filter="url(#shadow)">
    <path d="M104,275.34c0-18.87,2.92-37.94,5.78-56.38.69-4.44,1.38-9,2-13.5a53.12,53.12,0,0,0-2,103.76A101.22,101.22,0,0,1,104,275.34Z" fill="url(#brand)"/>
    <path d="M182.1,125.43c-3.12,0-5.65,4-5.65,8.92s2.53,8.91,5.65,8.91,5.64-4,5.64-8.91S185.22,125.43,182.1,125.43Z" fill="#E9FEFF"/>
    <path d="M250.82,125.43c-3.12,0-5.65,4-5.65,8.92s2.53,8.91,5.65,8.91,5.65-4,5.65-8.91S253.94,125.43,250.82,125.43Z" fill="#E9FEFF"/>
    <path d="M317.05,261.39c-1.19-18.66-5.72-37.25-7.55-55.81-1.85-18.86-4.22-37.65-6.57-56.46-.12-1-.25-1.91-.4-2.86a7.76,7.76,0,0,1,2.5-7.16,22.11,22.11,0,0,0-19.29-38.35,7.93,7.93,0,0,1-7.37-2.14c-15.88-15.76-37.87-23.55-61.94-23.55s-46.05,7.79-61.93,23.55a7.93,7.93,0,0,1-7.37,2.14,22.11,22.11,0,0,0-19.29,38.35,7.76,7.76,0,0,1,2.5,7.16c-.15,1-.28,1.9-.4,2.86q-3.6,28.89-7.21,57.8C118,245,103.05,299.86,137.05,329.86c21.43,18.91,60.16,10.63,63.84-19.92a32.53,32.53,0,0,0-11-28.19,40,40,0,1,1,53.19-.06A32.74,32.74,0,0,0,232,310l.17,1.44c2.78,23.05,26.77,32.23,47.21,26.37C310.77,328.81,318.86,289.59,317.05,261.39ZM227,186.33a4.56,4.56,0,0,1-4.47,3.66H210.37a4.56,4.56,0,0,1-4.48-3.66l-1.16-5.79a20.36,20.36,0,0,0,11.71-9.39,20.27,20.27,0,0,0,11.7,9.39Zm32.44-28.06a3.83,3.83,0,0,0-3.12,2.82c-1.92,9-10.81,15.81-21.49,15.81h-.19c-8.73-.06-15.72-6.47-15.72-14.23V151.51a4.93,4.93,0,0,1,2.47-4.3c5.44-3.08,11.39-9.84,10.13-14.38-2.21-8-26.92-7.63-30,0-1.76,4.35,4.42,11.27,10,14.4a4.92,4.92,0,0,1,2.48,4.3v11.13c0,7.76-7,14.17-15.72,14.23h-.19c-10.68,0-19.57-6.81-21.49-15.81a3.83,3.83,0,0,0-3.12-2.82c-12.86-2.56-20.94-8.13-20.94-20.23,0-22.78,28.62-41.24,63.92-41.24s63.93,18.46,63.93,41.24C280.36,150.14,272.28,155.71,259.42,158.27Z" fill="url(#brand)"/>
  </g>
</svg>
